G04 EAGLE Gerber RS-274X export*
G75*
%MOMM*%
%FSLAX34Y34*%
%LPD*%
%INSoldermask Bottom*%
%IPPOS*%
%AMOC8*
5,1,8,0,0,1.08239X$1,22.5*%
G01*
%ADD10C,1.473200*%
%ADD11C,1.727200*%
%ADD12C,1.109600*%


D10*
X38100Y336550D03*
X63500Y336550D03*
X63500Y361950D03*
X38100Y361950D03*
X38100Y146050D03*
X63500Y146050D03*
X63500Y171450D03*
X38100Y171450D03*
X139700Y336550D03*
X165100Y336550D03*
X165100Y361950D03*
X139700Y361950D03*
X139700Y146050D03*
X165100Y146050D03*
X165100Y171450D03*
X139700Y171450D03*
X241300Y336550D03*
X266700Y336550D03*
X266700Y361950D03*
X241300Y361950D03*
X241300Y146050D03*
X266700Y146050D03*
X266700Y171450D03*
X241300Y171450D03*
X342900Y146050D03*
X368300Y146050D03*
X368300Y171450D03*
X342900Y171450D03*
X508000Y146050D03*
X533400Y146050D03*
X533400Y171450D03*
X508000Y171450D03*
X673100Y146050D03*
X698500Y146050D03*
X698500Y171450D03*
X673100Y171450D03*
X774700Y146050D03*
X800100Y146050D03*
X800100Y171450D03*
X774700Y171450D03*
X774700Y336550D03*
X800100Y336550D03*
X800100Y361950D03*
X774700Y361950D03*
X876300Y146050D03*
X901700Y146050D03*
X901700Y171450D03*
X876300Y171450D03*
X876300Y336550D03*
X901700Y336550D03*
X901700Y361950D03*
X876300Y361950D03*
X977900Y146050D03*
X1003300Y146050D03*
X1003300Y171450D03*
X977900Y171450D03*
X977900Y336550D03*
X1003300Y336550D03*
X1003300Y361950D03*
X977900Y361950D03*
D11*
X292100Y39370D02*
X292100Y24130D01*
X317500Y24130D02*
X317500Y39370D01*
X342900Y39370D02*
X342900Y24130D01*
X368300Y24130D02*
X368300Y39370D01*
X393700Y39370D02*
X393700Y24130D01*
X419100Y24130D02*
X419100Y39370D01*
X444500Y39370D02*
X444500Y24130D01*
X469900Y24130D02*
X469900Y39370D01*
X495300Y39370D02*
X495300Y24130D01*
X520700Y24130D02*
X520700Y39370D01*
X546100Y39370D02*
X546100Y24130D01*
X571500Y24130D02*
X571500Y39370D01*
X596900Y39370D02*
X596900Y24130D01*
X622300Y24130D02*
X622300Y39370D01*
X647700Y39370D02*
X647700Y24130D01*
X673100Y24130D02*
X673100Y39370D01*
X698500Y39370D02*
X698500Y24130D01*
X723900Y24130D02*
X723900Y39370D01*
X749300Y39370D02*
X749300Y24130D01*
D12*
X63500Y285750D03*
X63500Y114300D03*
X165100Y285750D03*
X165100Y114300D03*
X266700Y114300D03*
X800100Y114300D03*
X800100Y285750D03*
X266700Y285750D03*
X901700Y114300D03*
X901700Y285750D03*
X1003300Y114300D03*
X1003300Y285750D03*
M02*
